<svg width="28" height="28" viewBox="0 0 28 28" fill="none" xmlns="http://www.w3.org/2000/svg">
<rect width="28" height="28" rx="14" fill="white"/>
<path d="M6.21697 19.5V9.31818H10.234C11.003 9.31818 11.6592 9.45573 12.2028 9.73082C12.7496 10.0026 13.1656 10.3887 13.4506 10.8892C13.739 11.3864 13.8832 11.9714 13.8832 12.6442C13.8832 13.3203 13.7373 13.902 13.4457 14.3892C13.154 14.8731 12.7314 15.2443 12.1779 15.5028C11.6277 15.7614 10.9615 15.8906 10.1793 15.8906H7.4897V14.1605H9.83132C10.2423 14.1605 10.5837 14.1042 10.8555 13.9915C11.1272 13.8788 11.3294 13.7098 11.462 13.4844C11.5979 13.259 11.6658 12.9789 11.6658 12.6442C11.6658 12.3061 11.5979 12.0211 11.462 11.7891C11.3294 11.5571 11.1256 11.3814 10.8505 11.2621C10.5787 11.1394 10.2357 11.0781 9.82138 11.0781H8.36967V19.5H6.21697ZM11.7156 14.8665L14.2461 19.5H11.8697L9.39382 14.8665H11.7156Z" fill="#18181B"/>
<path d="M17.2837 17.3026L17.2887 14.7621H17.5969L20.043 11.8636H22.4741L19.1879 15.7017H18.6857L17.2837 17.3026ZM15.3647 19.5V9.31818H17.4826V19.5H15.3647ZM20.1374 19.5L17.8903 16.174L19.3022 14.6776L22.6183 19.5H20.1374Z" fill="#E9425D"/>
</svg>
